<svg xmlns="http://www.w3.org/2000/svg" viewBox="0 0 450 450" width="450px" height="450px">
    <g transform="translate(30, 50)">
        <path fill="#FF5F5F" d="M64 0h288c35.3 0 64 28.7 64 64s-28.7 64-64 64H64C28.7 128 0 99.3 0 64S28.7 0 64 0z"/>
        <path fill="#72C2DC" d="M352 256c0 17.7-14.3 32-32 32H192c-17.7 0-32-14.3-32-32s14.3-32 32-32h128C337.7 224 352 238.3 352 256z"/>
        <path fill="#7F8DD6" d="M352 176C352 193.7 337.7 208 320 208H64C46.3 208 32 193.7 32 176s14.3-32 32-32h256C337.7 144 352 158.3 352 176z"/>
        <path fill="#FF8C66" d="M160 320h192c17.7 0 32 14.3 32 32s-14.3 32-32 32H160c-17.7 0-32-14.3-32-32S142.3 320 160 320z"/>
    </g>
</svg>
